<svg width="211" height="38" viewBox="0 0 211 38" fill="none" xmlns="http://www.w3.org/2000/svg">
<g filter="url(#filter0_d_2_2)">
<path d="M11.354 29H4.92791L14.7195 0.636363H22.4474L32.2251 29H25.799L18.6942 7.1179H18.4727L11.354 29ZM10.9524 17.8512H26.1314V22.5323H10.9524V17.8512ZM49.1699 19.9425V7.72727H55.0698V29H49.4054V25.136H49.1838C48.7037 26.3825 47.905 27.3842 46.7878 28.1413C45.6799 28.8984 44.3272 29.277 42.7299 29.277C41.3081 29.277 40.057 28.9538 38.9767 28.3075C37.8965 27.6612 37.0517 26.7425 36.4423 25.5515C35.8422 24.3604 35.5375 22.9339 35.5282 21.272V7.72727H41.4281V20.2195C41.4373 21.4751 41.7743 22.4677 42.4391 23.1971C43.1039 23.9265 43.9949 24.2912 45.112 24.2912C45.823 24.2912 46.4877 24.1296 47.1064 23.8065C47.725 23.4741 48.2235 22.9847 48.6021 22.3384C48.9899 21.6921 49.1792 20.8935 49.1699 19.9425ZM71.104 7.72727V12.1591H58.2932V7.72727H71.104ZM61.2016 2.63068H67.1015V22.4631C67.1015 23.0078 67.1846 23.4325 67.3508 23.7372C67.517 24.0327 67.7478 24.2404 68.0432 24.3604C68.3479 24.4805 68.6988 24.5405 69.0958 24.5405C69.3728 24.5405 69.6498 24.5174 69.9268 24.4712C70.2037 24.4158 70.4161 24.3743 70.5638 24.3466L71.4917 28.7369C71.1963 28.8292 70.7808 28.9354 70.2453 29.0554C69.7098 29.1847 69.0589 29.2631 68.2925 29.2908C66.8706 29.3462 65.6242 29.157 64.5532 28.723C63.4914 28.2891 62.665 27.6151 62.0741 26.701C61.4832 25.7869 61.1924 24.6328 61.2016 23.2386V2.63068ZM81.3041 16.7017V29H75.4042V0.636363H81.1379V11.4805H81.3872C81.8673 10.2248 82.6428 9.24148 83.7139 8.53054C84.7849 7.81037 86.1283 7.45028 87.7441 7.45028C89.2213 7.45028 90.5093 7.77344 91.608 8.41974C92.716 9.05682 93.5747 9.9755 94.184 11.1758C94.8026 12.3668 95.1073 13.7933 95.0981 15.4553V29H89.1982V16.5078C89.2075 15.1967 88.8751 14.1765 88.2011 13.4471C87.5363 12.7177 86.6038 12.353 85.4035 12.353C84.6002 12.353 83.8893 12.5238 83.2707 12.8654C82.6613 13.207 82.1812 13.7056 81.8303 14.3612C81.4887 15.0075 81.3133 15.7876 81.3041 16.7017Z" fill="#5CCA8A"/>
<path d="M115.263 29L107.147 0.636363H113.698L118.393 20.3441H118.628L123.808 0.636363H129.417L134.583 20.3857H134.832L139.527 0.636363H146.078L137.962 29H132.118L126.716 10.4556H126.495L121.107 29H115.263ZM156.503 29.4155C154.352 29.4155 152.491 28.9585 150.922 28.0444C149.361 27.1211 148.156 25.8377 147.307 24.1942C146.458 22.5415 146.033 20.6257 146.033 18.4467C146.033 16.2493 146.458 14.3288 147.307 12.6854C148.156 11.0327 149.361 9.74929 150.922 8.83523C152.491 7.91193 154.352 7.45028 156.503 7.45028C158.654 7.45028 160.51 7.91193 162.07 8.83523C163.64 9.74929 164.85 11.0327 165.699 12.6854C166.548 14.3288 166.973 16.2493 166.973 18.4467C166.973 20.6257 166.548 22.5415 165.699 24.1942C164.85 25.8377 163.64 27.1211 162.07 28.0444C160.51 28.9585 158.654 29.4155 156.503 29.4155ZM156.531 24.8452C157.509 24.8452 158.327 24.5682 158.982 24.0142C159.638 23.451 160.132 22.6847 160.464 21.7152C160.806 20.7457 160.976 19.6424 160.976 18.4052C160.976 17.168 160.806 16.0646 160.464 15.0952C160.132 14.1257 159.638 13.3594 158.982 12.7962C158.327 12.233 157.509 11.9513 156.531 11.9513C155.543 11.9513 154.712 12.233 154.038 12.7962C153.373 13.3594 152.87 14.1257 152.528 15.0952C152.196 16.0646 152.03 17.168 152.03 18.4052C152.03 19.6424 152.196 20.7457 152.528 21.7152C152.87 22.6847 153.373 23.451 154.038 24.0142C154.712 24.5682 155.543 24.8452 156.531 24.8452ZM170.809 29V7.72727H176.529V11.4389H176.751C177.139 10.1186 177.79 9.12145 178.704 8.44744C179.618 7.7642 180.67 7.42258 181.861 7.42258C182.157 7.42258 182.475 7.44105 182.817 7.47798C183.159 7.51491 183.459 7.5657 183.717 7.63033V12.8654C183.44 12.7823 183.057 12.7085 182.568 12.6438C182.078 12.5792 181.631 12.5469 181.224 12.5469C180.356 12.5469 179.581 12.7362 178.898 13.1147C178.224 13.484 177.688 14.0011 177.291 14.6658C176.903 15.3306 176.709 16.0969 176.709 16.9648V29H170.809ZM192.113 22.8786L192.127 15.8015H192.986L199.8 7.72727H206.572L197.418 18.419H196.019L192.113 22.8786ZM186.767 29V0.636363H192.667V29H186.767ZM200.063 29L193.803 19.7347L197.736 15.5661L206.974 29H200.063Z" fill="black"/>
</g>
<defs>
<filter id="filter0_d_2_2" x="0.927917" y="0.636368" width="210.046" height="36.7791" filterUnits="userSpaceOnUse" color-interpolation-filters="sRGB">
<feFlood flood-opacity="0" result="BackgroundImageFix"/>
<feColorMatrix in="SourceAlpha" type="matrix" values="0 0 0 0 0 0 0 0 0 0 0 0 0 0 0 0 0 0 127 0" result="hardAlpha"/>
<feOffset dy="4"/>
<feGaussianBlur stdDeviation="2"/>
<feComposite in2="hardAlpha" operator="out"/>
<feColorMatrix type="matrix" values="0 0 0 0 0 0 0 0 0 0 0 0 0 0 0 0 0 0 0.25 0"/>
<feBlend mode="normal" in2="BackgroundImageFix" result="effect1_dropShadow_2_2"/>
<feBlend mode="normal" in="SourceGraphic" in2="effect1_dropShadow_2_2" result="shape"/>
</filter>
</defs>
</svg>
 